<svg xmlns="http://www.w3.org/2000/svg" xmlns:xlink="http://www.w3.org/1999/xlink" width="1080" zoomAndPan="magnify" viewBox="0 0 810 809.999993" height="1080" preserveAspectRatio="xMidYMid meet" version="1.0"><defs><g/></defs><g fill="#ffffff" fill-opacity="1"><g transform="translate(0.0000035, 375.000001)"><g><path d="M 7.859375 0 L 34.234375 0 C 56.21875 0 74.1875 -17.84375 74.1875 -39.953125 C 74.1875 -62.078125 56.21875 -79.921875 34.234375 -79.921875 L 7.859375 -79.921875 Z M 25.4375 -15.578125 L 25.4375 -64.34375 L 34.09375 -64.34375 C 46.75 -64.34375 56.609375 -53.8125 56.609375 -39.953125 C 56.609375 -26.109375 46.75 -15.578125 34.09375 -15.578125 Z M 25.4375 -15.578125 "/></g></g></g><g fill="#ffffff" fill-opacity="1"><g transform="translate(79.119804, 375.000001)"><g><path d="M 16.65625 -62.203125 C 21.71875 -62.203125 25.96875 -66.46875 25.96875 -71.53125 C 25.96875 -76.71875 21.71875 -80.859375 16.65625 -80.859375 C 11.59375 -80.859375 7.328125 -76.71875 7.328125 -71.53125 C 7.328125 -66.46875 11.59375 -62.203125 16.65625 -62.203125 Z M 8.125 0 L 25.046875 0 L 25.046875 -53.28125 L 8.125 -53.28125 Z M 8.125 0 "/></g></g></g><g fill="#ffffff" fill-opacity="1"><g transform="translate(112.419386, 375.000001)"><g><path d="M 64.203125 -53.28125 L 47.15625 -53.28125 L 47.15625 -47.953125 C 42.765625 -51.953125 37.03125 -54.34375 30.5 -54.34375 C 15.71875 -54.34375 4.125 -42.21875 4.125 -26.640625 C 4.125 -11.1875 15.71875 1.0625 30.5 1.0625 C 37.15625 1.0625 43.03125 -1.46875 47.421875 -5.59375 L 47.421875 1.46875 C 47.421875 11.328125 41.953125 17.3125 33.296875 17.3125 C 27.171875 17.3125 22.515625 13.984375 20.515625 8.65625 L 4.921875 14.921875 C 9.328125 25.84375 19.3125 32.109375 33.296875 32.109375 C 52.75 32.109375 64.34375 20.25 64.34375 0.53125 Z M 34.765625 -13.984375 C 27.703125 -13.984375 22.109375 -19.578125 22.109375 -26.640625 C 22.109375 -33.703125 27.703125 -39.296875 34.765625 -39.296875 C 41.828125 -39.296875 47.546875 -33.703125 47.546875 -26.640625 C 47.546875 -19.578125 41.828125 -13.984375 34.765625 -13.984375 Z M 34.765625 -13.984375 "/></g></g></g><g fill="#ffffff" fill-opacity="1"><g transform="translate(184.746065, 375.000001)"><g><path d="M 16.65625 -62.203125 C 21.71875 -62.203125 25.96875 -66.46875 25.96875 -71.53125 C 25.96875 -76.71875 21.71875 -80.859375 16.65625 -80.859375 C 11.59375 -80.859375 7.328125 -76.71875 7.328125 -71.53125 C 7.328125 -66.46875 11.59375 -62.203125 16.65625 -62.203125 Z M 8.125 0 L 25.046875 0 L 25.046875 -53.28125 L 8.125 -53.28125 Z M 8.125 0 "/></g></g></g><g fill="#ffffff" fill-opacity="1"><g transform="translate(218.045648, 375.000001)"><g><path d="M 39.953125 -40.09375 L 39.953125 -53.28125 L 27.3125 -53.28125 L 27.3125 -73.796875 L 10.390625 -73.796875 L 10.390625 -53.28125 L 1.46875 -53.28125 L 1.46875 -40.09375 L 10.390625 -40.09375 L 10.390625 -19.046875 C 10.390625 -7.71875 19.984375 1.0625 31.296875 1.0625 C 34.90625 1.0625 38.5 0.265625 39.828125 -0.671875 L 39.828125 -13.859375 L 33.4375 -13.859375 C 29.84375 -13.859375 27.3125 -16.65625 27.3125 -21.046875 L 27.3125 -40.09375 Z M 39.953125 -40.09375 "/></g></g></g><g fill="#ffffff" fill-opacity="1"><g transform="translate(260.66912, 375.000001)"><g><path d="M 67.265625 -13.859375 C 65 -13.859375 62.609375 -14.65625 62.609375 -19.046875 L 62.609375 -53.28125 L 45.6875 -53.28125 L 45.6875 -48.625 C 41.6875 -52.21875 36.625 -54.34375 30.5 -54.34375 C 15.71875 -54.34375 4.125 -42.09375 4.125 -26.640625 C 4.125 -11.1875 15.71875 1.0625 30.5 1.0625 C 38.234375 1.0625 44.484375 -2.390625 48.75 -7.984375 C 52.078125 -2.53125 57.9375 1.0625 65.140625 1.0625 C 66.875 1.0625 68.46875 0.53125 69.671875 0 L 69.671875 -13.859375 Z M 33.828125 -13.984375 C 26.78125 -13.984375 21.171875 -19.578125 21.171875 -26.640625 C 21.171875 -33.703125 26.78125 -39.296875 33.828125 -39.296875 C 40.765625 -39.296875 46.484375 -33.703125 46.484375 -26.640625 C 46.484375 -19.578125 40.765625 -13.984375 33.828125 -13.984375 Z M 33.828125 -13.984375 "/></g></g></g><g fill="#ffffff" fill-opacity="1"><g transform="translate(332.329821, 375.000001)"><g><path d="M 7.859375 0 L 24.90625 0 L 24.90625 -91.25 L 7.859375 -91.25 Z M 7.859375 0 "/></g></g></g><g fill="#ffffff" fill-opacity="1"><g transform="translate(397.064193, 375.000001)"><g><path d="M 45.953125 1.0625 C 61.8125 1.0625 75.53125 -7.859375 82.3125 -20.90625 L 67.140625 -28.765625 C 63.265625 -21.171875 55.40625 -16.125 45.953125 -16.125 C 32.5 -16.125 22.25 -26.5 22.25 -39.953125 C 22.25 -53.421875 32.5 -63.796875 45.953125 -63.796875 C 55.40625 -63.796875 63.265625 -58.75 67.140625 -51.15625 L 82.3125 -59.015625 C 75.53125 -72.0625 61.8125 -80.984375 45.953125 -80.984375 C 23.3125 -80.984375 4.921875 -62.609375 4.921875 -39.953125 C 4.921875 -17.3125 23.3125 1.0625 45.953125 1.0625 Z M 45.953125 1.0625 "/></g></g></g><g fill="#ffffff" fill-opacity="1"><g transform="translate(482.843882, 375.000001)"><g><path d="M 67.265625 -13.859375 C 65 -13.859375 62.609375 -14.65625 62.609375 -19.046875 L 62.609375 -53.28125 L 45.6875 -53.28125 L 45.6875 -48.625 C 41.6875 -52.21875 36.625 -54.34375 30.5 -54.34375 C 15.71875 -54.34375 4.125 -42.09375 4.125 -26.640625 C 4.125 -11.1875 15.71875 1.0625 30.5 1.0625 C 38.234375 1.0625 44.484375 -2.390625 48.75 -7.984375 C 52.078125 -2.53125 57.9375 1.0625 65.140625 1.0625 C 66.875 1.0625 68.46875 0.53125 69.671875 0 L 69.671875 -13.859375 Z M 33.828125 -13.984375 C 26.78125 -13.984375 21.171875 -19.578125 21.171875 -26.640625 C 21.171875 -33.703125 26.78125 -39.296875 33.828125 -39.296875 C 40.765625 -39.296875 46.484375 -33.703125 46.484375 -26.640625 C 46.484375 -19.578125 40.765625 -13.984375 33.828125 -13.984375 Z M 33.828125 -13.984375 "/></g></g></g><g fill="#ffffff" fill-opacity="1"><g transform="translate(554.504584, 375.000001)"><g><path d="M 39.828125 -54.34375 C 33.5625 -54.34375 28.375 -51.15625 24.90625 -45.953125 L 24.90625 -53.28125 L 7.859375 -53.28125 L 7.859375 0 L 24.90625 0 L 24.90625 -25.4375 C 24.90625 -34.234375 30.90625 -39.296875 39.296875 -39.296875 C 41.296875 -39.296875 43.03125 -39.03125 44.21875 -38.765625 L 44.21875 -53.8125 C 43.03125 -54.21875 41.421875 -54.34375 39.828125 -54.34375 Z M 39.828125 -54.34375 "/></g></g></g><g fill="#ffffff" fill-opacity="1"><g transform="translate(598.460011, 375.000001)"><g><path d="M 62.078125 -26.78125 C 62.078125 -43.421875 50.609375 -54.484375 33.4375 -54.484375 C 16.25 -54.484375 4.125 -43.296875 4.125 -26.640625 C 4.125 -9.984375 16.125 1.0625 33.96875 1.0625 C 48.75 1.0625 58.609375 -6.796875 61.265625 -18.375 L 44.890625 -18.375 C 43.421875 -14.125 39.5625 -11.59375 33.703125 -11.59375 C 25.96875 -11.59375 21.984375 -16.25 21.3125 -23.84375 L 62.078125 -23.84375 Z M 33.703125 -41.421875 C 39.421875 -41.421875 42.765625 -38.765625 44.484375 -34.09375 L 22.375 -34.09375 C 24.109375 -38.625 27.703125 -41.421875 33.703125 -41.421875 Z M 33.703125 -41.421875 "/></g></g></g><g fill="#ffffff" fill-opacity="1"><g transform="translate(664.526384, 375.000001)"><g><path d="M 62.078125 -26.78125 C 62.078125 -43.421875 50.609375 -54.484375 33.4375 -54.484375 C 16.25 -54.484375 4.125 -43.296875 4.125 -26.640625 C 4.125 -9.984375 16.125 1.0625 33.96875 1.0625 C 48.75 1.0625 58.609375 -6.796875 61.265625 -18.375 L 44.890625 -18.375 C 43.421875 -14.125 39.5625 -11.59375 33.703125 -11.59375 C 25.96875 -11.59375 21.984375 -16.25 21.3125 -23.84375 L 62.078125 -23.84375 Z M 33.703125 -41.421875 C 39.421875 -41.421875 42.765625 -38.765625 44.484375 -34.09375 L 22.375 -34.09375 C 24.109375 -38.625 27.703125 -41.421875 33.703125 -41.421875 Z M 33.703125 -41.421875 "/></g></g></g><g fill="#ffffff" fill-opacity="1"><g transform="translate(730.592756, 375.000001)"><g><path d="M 39.828125 -54.34375 C 33.5625 -54.34375 28.375 -51.15625 24.90625 -45.953125 L 24.90625 -53.28125 L 7.859375 -53.28125 L 7.859375 0 L 24.90625 0 L 24.90625 -25.4375 C 24.90625 -34.234375 30.90625 -39.296875 39.296875 -39.296875 C 41.296875 -39.296875 43.03125 -39.03125 44.21875 -38.765625 L 44.21875 -53.8125 C 43.03125 -54.21875 41.421875 -54.34375 39.828125 -54.34375 Z M 39.828125 -54.34375 "/></g></g></g><g fill="#ffffff" fill-opacity="1"><g transform="translate(223.781242, 497.999995)"><g><path d="M 8.53125 0 L 26.109375 0 L 26.109375 -79.921875 L 8.53125 -79.921875 Z M 8.53125 0 "/></g></g></g><g fill="#ffffff" fill-opacity="1"><g transform="translate(258.279604, 497.999995)"><g><path d="M 40.09375 -54.34375 C 33.96875 -54.34375 28.640625 -51.421875 24.90625 -46.75 L 24.90625 -53.28125 L 7.859375 -53.28125 L 7.859375 0 L 24.90625 0 L 24.90625 -30.90625 C 24.90625 -35.703125 28.90625 -39.296875 33.828125 -39.296875 C 38.765625 -39.296875 42.21875 -35.703125 42.21875 -30.90625 L 42.21875 0 L 59.140625 0 L 59.140625 -33.703125 C 59.140625 -45.421875 50.609375 -54.34375 40.09375 -54.34375 Z M 40.09375 -54.34375 "/></g></g></g><g fill="#ffffff" fill-opacity="1"><g transform="translate(324.212767, 497.999995)"><g><path d="M 25.046875 1.0625 C 37.03125 1.0625 44.359375 -6.265625 44.359375 -16.25 C 44.359375 -26.90625 35.5625 -31.171875 27.96875 -34.09375 C 24.109375 -35.703125 22.25 -36.5 22.25 -38.5 C 22.25 -40.234375 23.578125 -41.5625 26.5 -41.5625 C 29.96875 -41.5625 33.171875 -39.6875 34.765625 -37.703125 L 43.296875 -47.28125 C 39.296875 -51.28125 32.765625 -54.34375 25.3125 -54.34375 C 13.1875 -54.34375 5.46875 -46.359375 5.46875 -37.296875 C 5.46875 -26.640625 16.125 -23.046875 22.25 -20.78125 C 27.046875 -18.921875 28.640625 -17.578125 28.640625 -15.71875 C 28.640625 -13.59375 26.78125 -12.390625 23.96875 -12.390625 C 21.171875 -12.390625 17.453125 -13.453125 15.046875 -17.984375 L 2.53125 -11.71875 C 5.734375 -3.46875 15.578125 1.0625 25.046875 1.0625 Z M 25.046875 1.0625 "/></g></g></g><g fill="#ffffff" fill-opacity="1"><g transform="translate(371.09858, 497.999995)"><g><path d="M 39.953125 -40.09375 L 39.953125 -53.28125 L 27.3125 -53.28125 L 27.3125 -73.796875 L 10.390625 -73.796875 L 10.390625 -53.28125 L 1.46875 -53.28125 L 1.46875 -40.09375 L 10.390625 -40.09375 L 10.390625 -19.046875 C 10.390625 -7.71875 19.984375 1.0625 31.296875 1.0625 C 34.90625 1.0625 38.5 0.265625 39.828125 -0.671875 L 39.828125 -13.859375 L 33.4375 -13.859375 C 29.84375 -13.859375 27.3125 -16.65625 27.3125 -21.046875 L 27.3125 -40.09375 Z M 39.953125 -40.09375 "/></g></g></g><g fill="#ffffff" fill-opacity="1"><g transform="translate(413.722041, 497.999995)"><g><path d="M 16.65625 -62.203125 C 21.71875 -62.203125 25.96875 -66.46875 25.96875 -71.53125 C 25.96875 -76.71875 21.71875 -80.859375 16.65625 -80.859375 C 11.59375 -80.859375 7.328125 -76.71875 7.328125 -71.53125 C 7.328125 -66.46875 11.59375 -62.203125 16.65625 -62.203125 Z M 8.125 0 L 25.046875 0 L 25.046875 -53.28125 L 8.125 -53.28125 Z M 8.125 0 "/></g></g></g><g fill="#ffffff" fill-opacity="1"><g transform="translate(447.021634, 497.999995)"><g><path d="M 39.953125 -40.09375 L 39.953125 -53.28125 L 27.3125 -53.28125 L 27.3125 -73.796875 L 10.390625 -73.796875 L 10.390625 -53.28125 L 1.46875 -53.28125 L 1.46875 -40.09375 L 10.390625 -40.09375 L 10.390625 -19.046875 C 10.390625 -7.71875 19.984375 1.0625 31.296875 1.0625 C 34.90625 1.0625 38.5 0.265625 39.828125 -0.671875 L 39.828125 -13.859375 L 33.4375 -13.859375 C 29.84375 -13.859375 27.3125 -16.65625 27.3125 -21.046875 L 27.3125 -40.09375 Z M 39.953125 -40.09375 "/></g></g></g><g fill="#ffffff" fill-opacity="1"><g transform="translate(489.645106, 497.999995)"><g><path d="M 31.703125 1.0625 C 47.8125 1.0625 56.75 -7.328125 56.75 -20.375 L 56.75 -53.28125 L 39.828125 -53.28125 L 39.828125 -22.640625 C 39.828125 -17.578125 36.359375 -13.984375 31.703125 -13.984375 C 27.171875 -13.984375 23.703125 -17.578125 23.703125 -22.640625 L 23.703125 -53.28125 L 6.65625 -53.28125 L 6.65625 -20.375 C 6.65625 -7.328125 15.578125 1.0625 31.703125 1.0625 Z M 31.703125 1.0625 "/></g></g></g><g fill="#ffffff" fill-opacity="1"><g transform="translate(553.180686, 497.999995)"><g><path d="M 39.953125 -40.09375 L 39.953125 -53.28125 L 27.3125 -53.28125 L 27.3125 -73.796875 L 10.390625 -73.796875 L 10.390625 -53.28125 L 1.46875 -53.28125 L 1.46875 -40.09375 L 10.390625 -40.09375 L 10.390625 -19.046875 C 10.390625 -7.71875 19.984375 1.0625 31.296875 1.0625 C 34.90625 1.0625 38.5 0.265625 39.828125 -0.671875 L 39.828125 -13.859375 L 33.4375 -13.859375 C 29.84375 -13.859375 27.3125 -16.65625 27.3125 -21.046875 L 27.3125 -40.09375 Z M 39.953125 -40.09375 "/></g></g></g><g fill="#ffffff" fill-opacity="1"><g transform="translate(595.804159, 497.999995)"><g><path d="M 62.078125 -26.78125 C 62.078125 -43.421875 50.609375 -54.484375 33.4375 -54.484375 C 16.25 -54.484375 4.125 -43.296875 4.125 -26.640625 C 4.125 -9.984375 16.125 1.0625 33.96875 1.0625 C 48.75 1.0625 58.609375 -6.796875 61.265625 -18.375 L 44.890625 -18.375 C 43.421875 -14.125 39.5625 -11.59375 33.703125 -11.59375 C 25.96875 -11.59375 21.984375 -16.25 21.3125 -23.84375 L 62.078125 -23.84375 Z M 33.703125 -41.421875 C 39.421875 -41.421875 42.765625 -38.765625 44.484375 -34.09375 L 22.375 -34.09375 C 24.109375 -38.625 27.703125 -41.421875 33.703125 -41.421875 Z M 33.703125 -41.421875 "/></g></g></g></svg>