<?xml version="1.0" encoding="utf-8"?>
<!-- Generator: Adobe Illustrator 27.5.0, SVG Export Plug-In . SVG Version: 6.00 Build 0)  -->
<svg version="1.1" id="Layer_1" xmlns="http://www.w3.org/2000/svg" xmlns:xlink="http://www.w3.org/1999/xlink" x="0px" y="0px"
	 viewBox="0 0 4000 4000" style="enable-background:new 0 0 4000 4000;" xml:space="preserve">
<g>
	<g>
		<g>
			<rect style="fill:#95C4FC;" width="4000" height="4000"/>
		</g>
	</g>
	<g>
		<g>
			<g>
				<g>
					<g>
						<path style="fill:#FFB200;" d="M2725.037,2632.624c-2.697,29.362-7.175,58.454-13.44,87.125
							c-8.722,40.29-20.932,79.73-36.374,117.867c-66.965,165.436-195.181,306.375-370.636,385.726
							c-175.837,79.524-366.814,82.575-535.529,23.237c-37.052-13.044-73.035-29.091-107.517-47.998
							c-27.062-14.798-53.177-31.374-78.226-49.601c176.601-44.415,380.708-116.049,591.948-211.585
							C2386.479,2841.871,2575.06,2735.907,2725.037,2632.624z"/>
					</g>
				</g>
				<g>
					<g>
						<path style="fill:#D66B09;" d="M2175.264,2937.396c211.214-95.524,399.795-201.489,549.772-304.772
							c-2.697,29.362-7.175,58.454-13.44,87.125c-115.418,83.844-299.82,187.365-514.554,284.481
							c-205.68,93.021-397.403,161.266-535.501,194.351c-27.062-14.798-53.177-31.374-78.226-49.601
							C1759.917,3104.565,1964.024,3032.931,2175.264,2937.396z"/>
					</g>
				</g>
				<g>
					<g>
						<path style="fill:#FFB200;" d="M2695.835,2354.6c-117.12,94.72-348.48,227.28-624.8,352.28
							c-276.36,124.96-528.72,211.16-677.2,236.56c-15.44-25.28-29.44-51.76-41.96-79.4c-0.6-1.32-1.16-2.56-1.76-3.92
							c-5.44-12.2-10.52-24.44-15.2-36.84c-11.04-28.88-20.08-58.12-27.2-87.48c-0.28-1.2-0.56-2.36-0.84-3.56
							c-10.32-43.68-16.4-87.72-18.4-131.56c-3.88-83.44,7-166.16,31.12-244.68c8.32-27.04,18.2-53.52,29.64-79.36
							c13.2-30.12,28.56-59.32,45.84-87.44c14.84-24.08,31.12-47.36,48.8-69.64c0.04,0,0.04,0,0.04,0
							c6.92-8.8,14.12-17.44,21.52-25.92c65.8-75.48,148.52-138.4,245.76-182.36c13.479-6.08,27.08-11.72,40.72-16.96
							c183.08-69.84,379.08-59.84,547.4,14.6c1.04,0.48,2.12,0.92,3.16,1.44c15.8,7.04,31.36,14.72,46.6,22.96
							c55.32,29.64,106.96,66.72,153.32,110.4c28.92,27.28,55.8,57.2,80.2,89.64c2.64,3.48,5.24,7.04,7.88,10.6
							c2.16,2.92,4.24,5.88,6.32,8.84c17.36,24.76,33.36,50.84,47.72,78.2c5.4,10.16,10.52,20.48,15.44,30.96
							c1.32,2.88,2.68,5.76,3.96,8.68C2676.435,2298.28,2687.035,2326.32,2695.835,2354.6z"/>
					</g>
				</g>
				<g>
					<g>
						<path style="fill:#D66B09;" d="M2659.936,2261.993c1.355,2.859,2.684,5.729,3.999,8.637
							c12.504,27.648,23.127,55.687,31.886,83.954c-117.107,94.716-348.457,227.304-624.813,352.289
							c-276.331,124.974-528.7,211.154-677.16,236.544c-15.442-25.244-29.482-51.738-41.986-79.386
							c-0.588-1.301-1.165-2.576-1.728-3.889c140.773-15.554,397.669-98.927,679.381-226.334
							C2322.348,2501.371,2561.774,2357.634,2659.936,2261.993z"/>
					</g>
				</g>
				<g>
					<g>
						<path style="fill:#D66B09;" d="M1298.152,2617.444c-3.669,0-7.183-0.083-10.547-0.259l1.709-32.998
							c99.324,5.088,357.388-76.68,627.773-198.965c284.883-128.838,525.137-276.138,571.27-350.239l28.052,17.461
							c-49.998,80.313-290.847,229.536-585.706,362.885C1660.539,2537.517,1409.69,2617.444,1298.152,2617.444z"/>
					</g>
				</g>
				<g>
					<g>
						<path style="fill:#D66B09;" d="M1322.011,2372.346l-4.854-32.685c111.028-16.49,303.181-82.446,501.475-172.129
							c207.798-93.975,387.761-197.793,469.661-270.933l22.009,24.648c-84.231,75.22-267.41,181.128-478.054,276.392
							C1631.365,2288.493,1435.852,2355.437,1322.011,2372.346z"/>
					</g>
				</g>
				<g>
					<g>
						<path style="fill:#D66B09;" d="M1307.964,2748.757c-0.393,0-0.776,0-1.165-0.005l0.161-33.037c0.359,0,0.73,0,1.094,0
							c114.236,0,379.961-85.503,662.119-213.115c297.043-134.336,546.624-285.825,606.938-368.393l26.68,19.492
							c-64.341,88.081-313.501,240.391-620,379.009C1697.749,2662.077,1426.528,2748.757,1307.964,2748.757z"/>
					</g>
				</g>
				<g>
					<g>
						<path style="fill:#D66B09;" d="M1769.651,3254.816l-0.591-8.193l-3.096-7.705l1.194-0.474l1.306-0.103
							c97.822-7.051,284.004-67.221,474.316-153.291c191.365-86.548,354.863-183.628,426.689-253.364l11.509,11.855
							c-73.105,70.977-238.403,169.282-431.392,256.558C2054.692,3188.249,1870.791,3247.531,1769.651,3254.816z"/>
					</g>
				</g>
				<g>
					<g>
						<path style="fill:#371A45;" d="M2008.301,3303.108c-153.635,0-306.316-47.871-434.407-141.196l-27.612-20.112l33.132-8.335
							c181.997-45.772,385.759-118.614,589.255-210.649c203.467-92.017,392.717-196.919,547.292-303.369l28.132-19.37l-3.125,34.014
							c-24.202,263.506-188.887,494.883-429.788,603.833C2214.553,3281.618,2111.206,3303.108,2008.301,3303.108z
							 M1621.174,3155.715c200.762,131.665,456.914,152.5,676.819,53.047c219.912-99.453,373.423-305.562,407.104-543.267
							c-150.498,100.708-330.618,199.365-523.24,286.479C1989.204,3039.104,1796.172,3109.211,1621.174,3155.715z"/>
					</g>
				</g>
				<g>
					<g>
						<path style="fill:#FFC943;" d="M3078.177,2195.238c43.465,96.106-99.828,262.943-353.14,437.385
							c-149.977,103.283-338.558,209.248-549.772,304.772c-211.24,95.536-415.348,167.169-591.948,211.585
							c-298.277,75.021-518.163,72.436-561.628-23.67c-39.474-87.281,75.04-232.838,286.041-389.496
							c7.112,29.38,16.148,58.598,27.188,87.492c-58.335,47.704-87.058,85.55-77.08,107.612
							c10.163,22.471,59.176,25.619,136.01,12.499c148.46-25.39,400.829-111.57,677.16-236.544
							c276.356-124.985,507.706-257.574,624.813-352.289c60.566-49.021,90.57-87.906,80.407-110.376
							c-9.966-22.037-57.365-25.486-131.686-13.195c-14.406-27.372-30.38-53.452-47.746-78.194
							C2853.778,2097.826,3038.703,2107.957,3078.177,2195.238z"/>
					</g>
				</g>
				<g>
					<g>
						<path style="fill:#FFEC90;" d="M1291.55,3019.011c-54.675,0.005-96.274-11.309-109.934-41.514
							c-19.578-43.281,25.662-108.98,134.456-195.264l15.4,19.414c-93.181,73.901-140.762,135.825-127.278,165.635
							c16.133,35.669,134.531,47.207,415.161-37.642c144.014-43.584,306.873-105.85,470.969-180.059
							c164.05-74.195,318.347-155.371,446.206-234.746c249.053-154.702,318.589-251.24,302.458-286.904
							c-13.486-29.824-91.406-34.98-208.438-13.809l-4.409-24.385c136.633-24.712,215.85-15.307,235.425,27.979
							c38.215,84.497-179.05,235.615-311.963,318.174c-128.765,79.937-284.05,161.636-449.07,236.27
							c-165.061,74.648-328.97,137.31-474.004,181.201C1530.307,2982.453,1389.822,3019.011,1291.55,3019.011z"/>
					</g>
				</g>
				<g>
					<g>
						<path style="fill:#FFEC90;" d="M1253.908,3116.091c-88.994,0.005-145.815-20.464-164.314-61.367
							c-38.347-84.79,97.119-211.431,217.512-302.734l14.976,19.746c-155.388,117.842-233.86,219.814-209.91,272.773
							c30.178,66.729,215.583,62.373,483.857-11.367c164.036-45.073,348.528-113.12,533.538-196.792
							c184.971-83.652,357.898-177.251,500.088-270.679c232.551-152.768,358.269-289.121,328.093-355.844
							c-23.953-52.954-152.341-61.372-343.455-22.505l-4.937-24.287c148.059-30.117,332.617-48.213,370.969,36.577
							c36.638,81.016-86.218,221.987-337.063,386.772c-143.254,94.121-317.356,188.369-503.486,272.544
							c-186.167,84.199-371.921,152.7-537.18,198.11C1459.336,3096.413,1341.159,3116.091,1253.908,3116.091z"/>
					</g>
				</g>
				<g>
					<g>
						<path style="fill:#371A45;" d="M1231.013,3217.834c-120.266,0.005-198.074-28.818-223.901-85.932
							c-42.102-93.081,61.274-238.311,291.079-408.936l19.404-14.404l5.686,23.486c7,28.921,15.945,57.705,26.582,85.552
							l4.121,10.786l-8.938,7.309c-81.35,66.519-73.025,87.759-72.632,88.633c0.408,0.893,11.143,21.699,118.74,3.315
							c151.648-25.938,409.626-116.118,673.259-235.352c263.645-119.233,501.731-253.403,621.345-350.151
							c84.822-68.647,76.294-90.445,75.891-91.343c-0.396-0.865-10.842-21.138-114.497-3.999l-11.392,1.885l-5.376-10.219
							c-13.879-26.372-29.587-52.095-46.685-76.45l-13.884-19.781l23.633-5.059c279.883-59.907,457.207-41.616,499.304,51.47l0,0
							c46.064,101.851-84.656,268.476-358.643,457.158c-156.116,107.51-347.083,213.379-552.253,306.172
							c-205.203,92.808-410.825,166.294-594.641,212.525C1445.508,3200.139,1325.229,3217.834,1231.013,3217.834z
							 M1298.249,2762.951c-197.463,150.171-295.156,282.412-261.982,355.767c37.913,83.818,246.03,89.477,543.145,14.746
							c182-45.772,385.762-118.614,589.258-210.649c203.467-92.017,392.717-196.919,547.292-303.369
							c252.339-173.774,385.547-333.794,347.637-417.617l0,0c-33.176-73.354-196.995-87.32-440.164-38.208
							c10.586,16.191,20.566,32.856,29.836,49.819c80.806-12.119,124.634-4.361,137.534,24.175
							c13.706,30.302-13.276,71.421-84.919,129.404c-123.43,99.834-358.303,232.329-628.284,354.434
							c-269.971,122.1-524.573,210.972-681.057,237.734c-90.886,15.513-139.583,8.633-153.286-21.675
							c-12.905-28.54,10.22-66.567,72.695-119.258C1309.341,2800.09,1303.418,2781.589,1298.249,2762.951z"/>
					</g>
				</g>
				<g style="opacity:0.35;">
					<g>
						<path style="fill:#371A45;" d="M2725.037,2632.624c-2.697,29.362-7.175,58.454-13.44,87.125
							c-8.722,40.29-20.932,79.73-36.374,117.867c-66.965,165.436-195.181,306.375-370.636,385.726
							c-175.837,79.524-366.814,82.575-535.529,23.237c-37.052-13.044-73.035-29.091-107.517-47.998
							c-27.062-14.798-53.177-31.374-78.226-49.601c176.601-44.415,380.708-116.049,591.948-211.585
							C2386.479,2841.871,2575.06,2735.907,2725.037,2632.624z"/>
					</g>
				</g>
				<g style="opacity:0.41;">
					<g>
						<g>
							<path style="fill:#FFFFFF;" d="M2695.818,2354.576c-13.63,11.03-28.781,22.539-45.41,34.531
								c-6.717-18.938-14.292-37.78-22.695-56.389c-1.331-2.9-2.666-5.758-4-8.614c-4.888-10.533-10.019-20.866-15.393-30.999
								c-14.401-27.371-30.401-53.464-47.738-78.21c-2.084-2.974-4.216-5.907-6.349-8.841
								c-26.446-36.491-55.995-70.017-88.097-100.256c-59.974-56.581-128.806-101.987-203.058-134.768
								c-180.877-79.994-393.747-85.571-588.123,2.357c-129.755,58.691-233.69,151.085-306.109,262.169
								c71.85-138.596,189.049-254.935,342.37-324.28c194.372-87.883,407.245-82.35,588.079-2.36
								c74.248,32.824,143.128,78.19,203.098,134.817c32.057,30.234,61.611,63.716,88.057,100.208
								c2.177,2.938,4.26,5.911,6.344,8.884c17.381,24.751,33.341,50.796,47.741,78.166c5.37,10.177,10.501,20.51,15.394,30.998
								c1.379,2.861,2.713,5.718,3.995,8.659C2676.423,2298.282,2687.048,2326.318,2695.818,2354.576z"/>
						</g>
					</g>
				</g>
				<g>
					<g>
						<path style="fill:#371A45;" d="M1385.857,2961.013l-5.659-9.248c-15.837-25.894-30.276-53.194-42.915-81.143
							c-6.218-13.745-12.046-27.754-17.322-41.626c-11.113-29.087-20.464-59.18-27.783-89.419
							c-82.888-342.823,90.564-697.295,412.427-842.861c321.865-145.576,702.593-41.729,905.286,246.909
							c17.878,25.474,34.302,52.363,48.811,79.937c6.934,13.12,13.604,26.748,19.812,40.479l0,0
							c12.649,27.959,23.613,56.831,32.59,85.805l3.208,10.357l-8.43,6.821c-123.425,99.829-358.298,232.324-628.279,354.429
							c-269.971,122.1-524.573,210.972-681.057,237.734L1385.857,2961.013z M2007.622,1863.288
							c-97.578,0-196.289,20.278-289.829,62.588c-307.876,139.238-473.792,478.286-394.512,806.177
							c7,28.916,15.942,57.7,26.582,85.547c5.054,13.286,10.627,26.685,16.575,39.839c10.586,23.408,22.49,46.338,35.452,68.296
							c152.903-28.232,405.024-116.982,662.524-233.443c257.515-116.46,490.654-247.182,612.82-343.35
							c-7.927-24.219-17.285-48.301-27.876-71.719l0,0c-5.94-13.135-12.319-26.167-18.962-38.736
							c-13.892-26.396-29.597-52.119-46.694-76.474C2448.735,1969.821,2231.206,1863.288,2007.622,1863.288z"/>
					</g>
				</g>
				<g style="opacity:0.35;">
					<g>
						<g>
							<path style="fill:#371A45;" d="M3072.315,2291.44c-39.721,94.12-165.04,215.72-347.28,341.2
								c-149.96,103.28-338.56,209.24-549.76,304.76c-211.24,95.52-415.36,167.16-591.96,211.6
								c-298.28,75-518.16,72.4-561.641-23.68c-26.399-58.32,16-142.72,110.08-239.04c-15.52,36.68-18.04,69.24-5.84,96.2
								c43.48,96.12,263.36,98.72,561.64,23.68c176.6-44.4,380.72-116.04,591.96-211.56c211.2-95.56,399.8-201.52,549.76-304.8
								C2928.875,2421.24,3011.435,2353.84,3072.315,2291.44z"/>
						</g>
					</g>
				</g>
			</g>
			<g>
				<g>
					<path style="fill:#FFFFFF;" d="M1968.777,1880.03c156.92,11.948,432.197,12.361,455.983-142.336
						c3.093-20.261,4.86-42.373,5.374-65.662c3.601-154.562-46.384-360.331-107.792-410.722
						c-35.065-28.756-100.285-37.383-171.862-30.54c-142.24,13.602-309.754,88.159-316.203,186.953
						C1828.006,1512.798,1811.857,1868.084,1968.777,1880.03z"/>
				</g>
			</g>
			<g style="opacity:0.35;">
				<g>
					<path style="fill:#371A45;" d="M1968.777,1880.03c156.92,11.948,432.197,12.361,455.983-142.336
						c3.093-20.261,4.86-42.373,5.374-65.662c-44.895,32.212-104.029-0.81-109.488-42.845
						c-33.702-259.507-125.261-362.554-170.167-398.417c-142.24,13.602-309.754,88.159-316.203,186.953
						C1828.006,1512.798,1811.857,1868.084,1968.777,1880.03z"/>
				</g>
			</g>
			<g>
				<g>
					<path style="fill:#371A45;" d="M2085.808,1900.759c-39.795,0-79.79-1.846-118.24-4.775
						c-156.477-11.914-160.691-305.422-149.275-479.319c3.931-59.863,57.9-115.291,151.965-156.074
						c118.442-51.35,290.603-70.405,362.224-11.65l0,0c80.847,66.328,131.033,341.692,108.079,491.189
						C2421.064,1867.107,2255.593,1900.759,2085.808,1900.759z M2194.695,1244.34c-64.622,0-142.39,15.557-211.707,45.61
						c-81.313,35.254-129.702,82.202-132.761,128.809c-6.685,101.819-17.803,434.841,119.771,445.32
						c154.731,11.777,417.512,10.698,438.933-128.804c22.896-149.109-31.353-407.947-96.746-461.594l0,0
						C2288.135,1253.947,2245.471,1244.34,2194.695,1244.34z"/>
				</g>
			</g>
			<g>
				<g>
					<path style="fill:#FFFFFF;" d="M2295.441,1521.449l70.962-24.737c16.039-5.591,33.386,4.112,36.922,20.725
						c12.168,57.159,29.583,175.291-28.339,196.772c-70.197,26.033-91.133-54.543-98.447-164.304
						C2275.697,1537.26,2283.475,1525.621,2295.441,1521.449z"/>
				</g>
			</g>
			<g style="opacity:0.35;">
				<g>
					<path style="fill:#371A45;" d="M2276.689,1549.736c7.052,109.775,27.812,190.423,98.063,164.526
						c28.856-10.594,39.095-45.236,40.591-84.374c-6.239,10.947-14.86,19.257-26.607,23.567
						c-62.896,23.152-86.15-39.062-95.328-131.186C2282.673,1526.937,2275.894,1537.91,2276.689,1549.736z"/>
				</g>
			</g>
			<g>
				<g>
					<path style="fill:#371A45;" d="M2350.141,1735.153c-12.197,0-23.359-3.262-33.386-9.785
						c-32.786-21.333-49.548-73.55-56.05-174.595c-1.272-19.746,10.94-38.071,29.7-44.561l71.018-24.578
						c12.014-4.153,25.247-2.952,36.306,3.311c11.028,6.243,18.85,16.931,21.458,29.321
						c17.886,84.966,25.654,191.243-38.911,215.017C2369.646,1733.2,2359.582,1735.153,2350.141,1735.153z M2375.923,1511.181
						c-1.238,0-2.595,0.195-4.036,0.693l-71.018,24.578c-5.195,1.799-8.579,6.841-8.23,12.263
						c2.039,31.697,8.245,128.147,41.57,149.832c8.982,5.84,20.435,6.084,35.007,0.708c38.464-14.163,34.856-101.44,18.657-178.396
						c-0.981-4.663-4.124-7.056-5.908-8.066C2380.73,1512.094,2378.603,1511.181,2375.923,1511.181z M2295.637,1521.333h0.049
						H2295.637z"/>
				</g>
			</g>
			<g>
				<g>
					<path style="fill:#371A45;" d="M2342.802,1292.112c-7.898,4.265-16.353,7.268-24.885,9.88
						c-8.537,2.639-17.36,4.473-26.181,6.345c-8.822,1.87-17.731,3.513-26.726,4.998c-9.027,1.401-18.083,2.754-27.47,3.479
						c-1.237,0.103-2.322-0.818-2.424-2.053c-0.063-0.752,0.272-1.462,0.805-1.917c7.277-6.03,14.968-11.226,22.749-16.216
						c7.825-4.871,15.777-9.478,23.864-13.723c8.091-4.233,16.213-8.418,24.656-11.697c8.45-3.298,17.002-6.135,26.159-7.568
						c8.297-1.299,16.077,4.373,17.376,12.671c1.023,6.531-2.274,12.742-7.772,15.723L2342.802,1292.112z"/>
				</g>
			</g>
			<g>
				<g>
					<path style="fill:#FFFFFF;" d="M2056.211,1813.652l-57.854-17.577c-65.305-19.841-136.211-16.536-198.148,11.786
						c-21.456,9.811-42.191,22.729-59.341,39.735c-62.68,62.166-64.438,186.983-21.88,237.573
						c16.781,19.948,34.829,42.097,34.829,42.097c-11.922,17.086-94.053,155.674-27.963,210.769
						c57.877,48.248,164.698,40.33,220.976-35.551c37.196-50.153,44.746-108.014,42.631-152.236
						c-2.473-51.707-28.741-121.514,14.046-139.708c63.792-27.126,121.732-12.09,213.981-82.615
						c107.951-82.53,124.859-260.287,76.895-410.566c-34.496-108.081-244.455-312.735-244.455-312.735l66.237,607.759
						L2056.211,1813.652z"/>
				</g>
			</g>
			<g>
				<g>
					<path style="fill:#FFFFFF;" d="M1730.315,1547.44l-211.24,192.32l-2.2-3.52l-90.52-145.76
						c106.88-45.52,173.319-180.8,173.319-180.8l8.48,8.96L1730.315,1547.44z"/>
				</g>
			</g>
			<g style="opacity:0.35;">
				<g>
					<path style="fill:#371A45;" d="M1730.315,1547.44l-211.24,192.32l-2.2-3.52c60.96-93.6,84.44-257.36,91.28-317.6
						L1730.315,1547.44z"/>
				</g>
			</g>
			<g>
				<g>
					<path style="fill:#371A45;" d="M1515.605,1764.548l-112.666-181.484l17.163-7.31c100.232-42.7,164.595-171.824,165.232-173.123
						l10.144-20.647l157.668,166.309L1515.605,1764.548z M1449.404,1597.238l73.101,117.749l184.954-168.374l-104.226-109.939
						C1581.311,1474.592,1527.278,1556.462,1449.404,1597.238z"/>
				</g>
			</g>
			<g>
				<g>
					<path style="fill:#FFFFFF;" d="M1491.309,1570.143c0,0-126.594-113.882-207.232-144.415l-22.544,52.892l169.08,166.479
						L1491.309,1570.143z"/>
				</g>
			</g>
			<g>
				<g>
					<path style="fill:#371A45;" d="M1430.613,1661.101c-4.189,0-8.225-1.646-11.226-4.6l-169.079-166.479
						c-4.685-4.614-6.072-11.626-3.494-17.676l22.544-52.893c3.367-7.893,12.371-11.724,20.386-8.689
						c82.495,31.238,207.007,142.754,212.266,147.485c6.331,5.693,7.092,15.347,1.733,21.963l-60.696,74.956
						c-2.839,3.508-7.029,5.652-11.536,5.906C1431.211,1661.091,1430.91,1661.101,1430.613,1661.101z M1280.525,1474.868
						l148.75,146.46l39.915-49.292c-30.227-26.111-114.226-96.255-176.653-125.349L1280.525,1474.868z"/>
				</g>
			</g>
			<g>
				<g>
					<path style="fill:#FFFFFF;" d="M1615.301,1260.116c63.6,253.577-11.665,485.564-11.665,485.564
						c-246.25,88.442-111.894,331.224-111.894,331.224s-169.788,98.237-89.743,196.393c69.704,85.476,303.809-12.73,315.131-137.432
						c0,0-40.267-126.594,22.163-169.948"/>
				</g>
			</g>
			<g style="opacity:0.35;">
				<g>
					<path style="fill:#371A45;" d="M2695.835,2354.6c-266.76,219.6-1028.92,549.64-1302,588.84
						c-142.993-227.194-140.585-539.003,9.124-766.739c2.728-4.231,5.506-8.437,8.356-12.621c10.24-15.2,21.08-30.08,32.56-44.52
						c0.04,0,0.04,0,0.04,0c16.12-10,27.56-15.64,27.56-15.64s-2.36-3.68-6.04-10.28c65.8-75.48,148.52-138.4,245.76-182.36
						c13.479-6.08,27.08-11.72,40.72-16.96c183.08-69.84,379.08-59.84,547.4,14.6c1.04,0.48,2.12,0.92,3.16,1.44
						c15.8,7.04,31.36,14.72,46.6,22.96c-8.76,7.8-18.2,15-28.32,21.64c-107.92,70.52-175.719,55.48-250.36,82.6
						c-25.6,9.32-30.12,32.08-27.96,59.04c-3.04,30.16,9.68,70.56,11.52,103.72c0.04,0.64,0.04,1.28,0.08,1.92
						c-1.92,39.72-14.2,86.12-50,127.28c-63.56,73.24-182.24,83.16-251.32,40.32c-2.479-1.52-4.88-3.12-7.24-4.8
						c-17.96-12.76-26.6-30.08-29.04-49.28c5.36-49.48,37.4-103.76,53.8-127.92c3.52-5.2,6.32-9,7.96-11.08c0,0-3.6-3.88-9.24-9.84
						c-4.24-4.56-9.68-10.32-15.6-16.6c-5.12-5.4-10.601-11.12-15.92-16.68c-5.36-5.56-10.12-12-14.24-19.16
						c4.32,27.6,12.08,48.4,12.08,48.4c-12.96,122.24-259.2,269.24-363.641,165.96c-3.84,260.84,267.561,475.32,539.641,365.96
						c290.2-116.68,613.8-277.4,767.56-388.68C2685.115,2322.2,2690.794,2338.36,2695.835,2354.6z"/>
				</g>
			</g>
			<g>
				<g>
					<path style="fill:#FFFFFF;" d="M2319.754,1684.6c-1.36,98.64-33.2,190.48-102.28,243.32c-92.24,70.52-150.16,55.48-213.96,82.6
						c-21.88,9.32-25.72,32.08-23.88,59.04c-2.6,30.16,8.28,70.56,9.84,103.72c0.04,0.64,0.04,1.28,0.08,1.92
						c-1.64,39.72-12.16,86.12-42.72,127.28c-54.32,73.24-155.76,83.16-214.76,40.32c-2.12-1.52-4.2-3.12-6.2-4.8
						c-15.36-12.76-22.72-30.08-24.8-49.28c4.56-49.48,31.96-103.76,45.96-127.92c3-5.2,5.4-9,6.8-11.08c0,0-3.08-3.88-7.88-9.84
						c-3.64-4.56-8.28-10.32-13.36-16.6c-4.36-5.4-9.04-11.12-13.6-16.68s-8.64-12-12.16-19.16c3.68,27.6,10.32,48.4,10.32,48.4
						c-11.32,124.72-245.44,222.92-315.16,137.44c-12.68-15.52-19.08-31.04-20.88-46.16c-9.72-80.6,110.64-150.24,110.64-150.24
						s-66.96-120.96-19.72-223.24c19.68-42.6,59.2-81.96,131.6-107.96c0,0,17.8-54.84,28.76-140.36c2.8-21.92,5.16-45.84,6.68-71.36
						c2.8-47.88,2.6-101.4-3.4-157.92l414.24-171.44c0,0,0.2,0.2,0.6,0.6c0.2,0.2,0.44,0.44,0.76,0.76l0.96,0.96
						c0.36,0.4,0.76,0.8,1.24,1.24c2.12,2.16,5.12,5.2,8.92,9.12c17.68,18.2,52.16,54.44,89.48,97.48
						c58.8,67.8,124.52,152.44,142.52,210.2c5.16,16.52,9.56,33.4,13.16,50.44C2315.275,1611.52,2319.435,1648.4,2319.754,1684.6z"
						/>
				</g>
			</g>
			<g>
				<g>
					<path style="fill:#371A45;" d="M1709.69,1988.034c-5.095,0-9.822-3.267-11.438-8.384
						c-43.262-136.807-223.328-113.037-225.139-112.803c-6.577,0.972-12.634-3.643-13.56-10.205s3.643-12.632,10.205-13.56
						c2.019-0.264,202.063-26.616,251.375,129.331c2,6.318-1.504,13.062-7.822,15.059
						C1712.107,1987.854,1710.888,1988.034,1709.69,1988.034z"/>
				</g>
			</g>
			<g>
				<g>
					<path style="fill:#FFFFFF;" d="M1635.669,1376.057l-20.36-115.96C1625.188,1299.537,1631.709,1338.457,1635.669,1376.057z"/>
				</g>
			</g>
			<g>
				<g>
					<path style="fill:#371A45;" d="M1483.965,2321.501c-40.608,0.005-73.892-12.989-94.365-38.091
						c-20.959-25.703-28.833-53.779-23.401-83.448c11.128-60.781,76.606-110.156,104.785-128.882
						c-15.781-34.087-50.969-126.001-18.74-211.553c21.345-56.66,67.869-99.043,138.342-126.069
						c11.714-40.977,64.685-248.208,9.197-469.451c-2.148-8.569,3.057-17.261,11.628-19.412c8.567-2.139,17.261,3.057,19.412,11.628
						c63.979,255.1-8.835,484.744-11.965,494.392l-2.424,7.466l-7.388,2.656c-65.459,23.511-108.118,60.488-126.797,109.912
						c-34.526,91.357,22.917,197.461,23.501,198.521l7.556,13.726l-13.55,7.856c-0.898,0.523-90.847,53.369-102.09,115.025
						c-3.701,20.283,1.772,39.063,16.733,57.407c22.725,27.871,73.257,34.038,131.882,16.108
						c71.367-21.826,146.633-77.334,154.597-141.904c-6.343-21.768-36.667-138.809,29.29-184.609
						c7.256-5.044,17.229-3.247,22.268,4.014c5.039,7.256,3.242,17.227-4.016,22.266c-43.125,29.951-26.199,119.853-16.038,151.968
						l0.969,3.071l-0.286,3.213c-7.59,83.613-97.295,148.076-177.427,172.583C1530.18,2317.678,1505.993,2321.501,1483.965,2321.501
						z M1603.64,1745.676h0.049H1603.64z"/>
				</g>
			</g>
			<g>
				<g>
					<path style="fill:#FFFFFF;" d="M2068.355,1761.8l-47.84,40.64l-509.28-232.28c0,0,34.6-20.32,128.479-47.96
						c62.68-18.48,151.8-40.24,274.72-61.44l26.84,52.48L2068.355,1761.8z"/>
				</g>
			</g>
			<g>
				<g>
					<path style="fill:#371A45;" d="M2023.115,1821.223l-546.519-249.302l26.56-15.579c4.033-2.366,102.278-58.53,408.569-111.331
						l11.604-2.002l165.027,322.773L2023.115,1821.223z M1549.641,1570.07l468.25,213.594l30.442-25.869l-142.766-279.231
						C1704.516,1513.903,1596.965,1550.678,1549.641,1570.07z"/>
				</g>
			</g>
			<g>
				<g>
					<path style="fill:#FFFFFF;" d="M1946.83,2167.241"/>
				</g>
			</g>
			<g>
				<g>
					<path style="fill:#32B1D1;" d="M1973.32,1379.096"/>
				</g>
			</g>
			<g>
				<g>
					<polygon style="fill:#73BEFD;" points="1678.902,1889.06 2030.632,1799.873 1884.963,1513.693 1533.233,1590.473 					"/>
				</g>
			</g>
			<g>
				<g>
					<polygon style="fill:#73BEFD;" points="1678.902,1889.06 2030.632,1799.873 1884.963,1513.693 1533.233,1590.473 					"/>
				</g>
			</g>
			<g style="opacity:0.35;">
				<g>
					<path style="fill:#371A45;" d="M2014.634,1839.88l-269.92,68.44c-3.2,62.32-8.76,168.56-12.12,214.96
						c-4.36-5.4-9.04-11.12-13.6-16.68s-8.64-12-12.16-19.16c3.68,27.6,10.32,48.4,10.32,48.4
						c-11.32,124.72-245.44,222.92-315.16,137.44c-12.68-15.52-19.08-31.04-20.88-46.16c56,80.6,216.04,4.64,244.04-20.88
						c30.479-27.76,34.56-42.6,15.479-147.44c-10.319-56.64,3.88-99.4,24.96-130.44l-2.68,0.68h-53.2L1495.235,1888l-23.2-34.36
						c19.68-42.6,59.2-81.96,131.6-107.96c0,0,17.8-54.84,28.76-140.36l236.56-51.64L2014.634,1839.88z"/>
				</g>
			</g>
			<g>
				<g>
					<polygon style="fill:#1F9FFF;" points="2030.634,1799.88 1678.915,1889.04 1669.235,1869.24 1533.235,1590.48 
						1884.955,1513.68 1918.435,1579.44 					"/>
				</g>
			</g>
			<g style="opacity:0.7;">
				<g>
					<path style="fill:#FFFFFF;" d="M1584.351,1639.209l103.443,247.591l-8.88,2.24l-9.68-19.8l-136-278.76l351.72-76.8l5.96,11.68
						l-288.774,77.603C1586.466,1607.176,1578.094,1624.234,1584.351,1639.209z"/>
				</g>
			</g>
			<g style="opacity:0.35;">
				<g>
					<path style="fill:#371A45;" d="M2030.634,1799.88l-351.72,89.16l-9.68-19.8c6.04-80.4,172.28-121.64,172.28-121.64
						c-28.6-101.48,48.84-153.12,76.92-168.16L2030.634,1799.88z"/>
				</g>
			</g>
			<g>
				<g>
					<path style="fill:#371A45;" d="M1678.899,1904.06c-5.627,0-10.92-3.179-13.479-8.423l-145.669-298.586
						c-2.019-4.138-2.024-8.972-0.02-13.115c2.007-4.143,5.806-7.136,10.303-8.118l351.731-76.78
						c6.658-1.436,13.469,1.77,16.565,7.852l145.669,286.174c2.07,4.067,2.178,8.848,0.293,13.003
						c-1.882,4.15-5.552,7.222-9.973,8.345l-351.731,89.189C1681.36,1903.913,1680.119,1904.06,1678.899,1904.06z
						 M1555.085,1601.057l131.951,270.464l321.711-81.577l-131.899-259.126L1555.085,1601.057z"/>
				</g>
			</g>
			<g>
				<g>
					<polygon style="fill:#1F9FFF;" points="1533.233,1590.473 1466.162,1590.993 1625.706,1889.06 1678.902,1889.06 					"/>
				</g>
			</g>
			<g style="opacity:0.7;">
				<g>
					<polygon style="fill:#FFFFFF;" points="1547.315,1619.32 1481.595,1619.84 1466.155,1591 1533.235,1590.48 					"/>
				</g>
			</g>
			<g>
				<g>
					<path style="fill:#371A45;" d="M1678.901,1904.06h-53.196c-5.532,0-10.615-3.042-13.225-7.92l-159.543-298.069
						c-2.478-4.629-2.354-10.22,0.327-14.736c2.681-4.514,7.529-7.3,12.781-7.341l67.07-0.52c5.62,0,11.064,3.232,13.599,8.423
						l145.669,298.586c2.268,4.648,1.98,10.137-0.759,14.526C1688.882,1901.394,1684.074,1904.06,1678.901,1904.06z
						 M1634.69,1874.06h20.203l-130.996-268.513l-32.795,0.254L1634.69,1874.06z"/>
				</g>
			</g>
			<g>
				<g>
					<polygon style="fill:#1F9FFF;" points="1625.714,1889.04 1511.235,1848 1464.915,1779.44 1436.515,1737.44 1363.515,1629.52 
						1261.515,1478.6 1466.155,1591 1624.674,1887.08 					"/>
				</g>
			</g>
			<g style="opacity:0.7;">
				<g>
					<polygon style="fill:#FFFFFF;" points="1625.714,1889.04 1604.595,1881.48 1448.915,1610.88 1287.475,1517 1261.515,1478.6 
						1466.155,1591 1624.674,1887.08 					"/>
				</g>
			</g>
			<g>
				<g>
					<path style="fill:#371A45;" d="M1625.703,1904.06c-1.694,0-3.406-0.288-5.063-0.879l-114.453-41.064
						c-2.998-1.079-5.576-3.081-7.361-5.718l-249.719-369.377c-3.879-5.74-3.325-13.389,1.343-18.506
						c4.666-5.117,12.236-6.382,18.303-3.042l204.629,112.373c2.549,1.399,4.634,3.506,6.006,6.069l159.544,298.064
						c2.927,5.474,2.185,12.183-1.868,16.88C1634.157,1902.224,1629.983,1904.06,1625.703,1904.06z M1520.932,1835.534
						l73.157,26.245l-139.05-259.783l-146.306-80.344L1520.932,1835.534z"/>
				</g>
			</g>
			<g>
				<g>
					<path style="fill:#371A45;" d="M1466.162,1590.993c0,0,1.176-37.167,31.433-41.49c25.037-3.577,42.618,39.446,42.618,39.446
						L1466.162,1590.993z"/>
				</g>
			</g>
			<g>
				<g>
					<path style="fill:#FFFFFF;" d="M2319.754,1681.72c0.04,0.96,0,1.92,0,2.88c-1.36,98.64-33.2,190.48-102.28,243.32
						c-92.24,70.52-150.16,55.48-213.96,82.6c-21.88,9.32-25.72,32.08-23.88,59.04c1.721,25.8,8.601,55.4,9.84,80.68
						c0.36,7.92,0.44,16.28,0.08,24.96c-1.64,39.72-12.16,86.12-42.72,127.28c-56.28,75.88-163.08,83.8-220.96,35.52
						c-15.36-12.76-22.72-30.08-24.8-49.28c-0.08-0.64-0.12-1.32-0.16-1.96c-4.76-52.32,28.28-118.24,45.04-146.88
						c3.52-6,6.32-10.4,7.88-12.64c0,0-18.04-22.12-34.84-42.08c-42.56-50.6-40.8-175.4,21.88-237.6
						c17.16-17,37.88-29.92,59.36-39.72c33.08-15.12,68.72-23.12,104.68-24.24c31.4-1.04,63.04,3.2,93.44,12.44l57.88,17.6
						l59.92-1.28l-29.6-271.64c14.28-14.08,25.56-36.56,23.72-71.52l-7.601-36.76l-36.28-175.16l-2.64-12.64
						c0,0,47.84,36.56,101.481,92c52.519,54.2,110.6,126.48,134.96,200.24c0,0.12,0.04,0.24,0.12,0.4
						c3.84,13.68,7.08,27.56,9.76,41.52C2316.715,1613,2320.035,1647.76,2319.754,1681.72z"/>
				</g>
			</g>
			<g style="opacity:0.35;">
				<g>
					<path style="fill:#371A45;" d="M2319.754,1681.72c0.04,0.96,0,1.92,0,2.88c-1.36,98.64-33.2,190.48-102.28,243.32
						c-92.24,70.52-150.16,55.48-213.96,82.6c-21.88,9.32-25.72,32.08-23.88,59.04c1.721,25.8,8.601,55.4,9.84,80.68
						c0.36,7.92,0.44,16.28,0.08,24.96c-1.64,39.72-12.16,86.12-42.72,127.28c-56.28,75.88-163.08,83.8-220.96,35.52
						c-15.36-12.76-22.72-30.08-24.8-49.28c-0.08-0.64-0.12-1.32-0.16-1.96c61,51,165.2,68.68,222.96-38.88
						c66.04-123.08-8.88-173.44-10.4-232.4c-1.56-58.96,107.48-44.2,264.44-116.2
						C2270.875,1856.68,2306.315,1756.4,2319.754,1681.72z"/>
				</g>
			</g>
			<g>
				<g>
					<path style="fill:#371A45;" d="M2054.661,1818.755c-13.544-1.726-26.893-4.097-40.162-6.729
						c-6.643-1.282-13.271-2.639-19.844-4.126c-6.366-1.221-12.676-2.49-19.024-3.506c-25.366-4.058-50.901-5.64-76.19-3.809
						c-25.246,1.951-50.175,6.992-73.865,15.537c-23.685,8.491-46.474,20.122-65.145,35.789c-4.722,3.884-9.012,8.162-12.855,12.646
						c-1.932,2.263-4.136,4.268-5.88,6.721l-5.252,7.346l-2.639,3.669l-2.25,3.977l-4.538,7.937
						c-2.697,5.496-5.247,11.123-7.567,16.836c-8.703,23.196-13.085,48.367-13.387,73.425c-0.41,25.032,4.158,50.203,13.611,71.816
						c2.843,4.983,5.231,10.417,8.737,14.604l2.401,3.379c0.777,1.123,2.072,2.554,3.082,3.816l6.465,7.815l25.861,31.257
						l7.596,9.182l-6.878,10.083c-2.197,3.218-4.718,7.356-7.024,11.277c-2.337,3.997-4.616,8.069-6.825,12.183
						c-4.425,8.228-8.588,16.619-12.44,25.115c-7.658,16.997-14.279,34.434-18.722,52.029c-4.339,17.502-6.9,35.449-4.722,51.658
						c1.061,8.074,3.271,15.603,6.795,22.124c3.621,6.614,8.099,11.899,14.648,16.785c26.51,20.718,63.51,28.044,98.067,23.005
						c34.891-4.722,67.397-22.788,90.222-49.17c2.726-3.445,5.703-6.587,8.271-10.244c2.552-3.674,5.2-7.285,7.459-11.152
						c4.84-7.532,8.836-15.579,12.587-23.721c7.205-16.445,12.321-33.884,15.236-51.821c2.974-17.908,3.826-36.328,2.921-54.558
						c-0.998-17.783-4.603-36.726-7.289-56.414c-1.351-9.875-2.52-20.032-2.833-30.72c-0.156-10.701,0.15-22.051,4.193-34.277
						c2.029-6.05,5.146-12.288,9.66-17.776c4.477-5.51,10.283-10.017,16.316-13.105c1.442-0.696,3.193-1.599,4.406-2.068
						l3.654-1.423l7.313-2.837c4.902-1.729,9.851-3.281,14.778-4.81c19.792-5.71,39.301-9.119,57.822-13.174
						c18.568-3.97,36.262-8.843,53.269-15.659c17.035-6.682,33.227-15.476,48.785-25.5c7.886-4.819,15.304-10.51,22.87-15.933
						c3.696-2.761,7.015-5.649,10.551-8.455c3.27-3.081,6.692-5.994,9.861-9.185c25.523-25.398,44.442-57.539,56.579-92.334
						c12.26-34.812,18.442-72.012,19.999-109.421c1.532-37.449-1.537-75.215-8.499-112.222
						c-3.488-18.506-7.966-36.831-13.415-54.849l-2.052-6.755c-0.703-2.192-1.479-4.15-2.207-6.238
						c-1.33-4.116-3.313-8.24-5.034-12.368c-1.816-4.121-3.98-8.21-5.943-12.322l-6.668-12.2
						c-18.651-32.361-41.541-63.228-65.497-93.081c-48.367-59.761-104.78-112.271-147.828-178.364
						c-1.647-2.529-0.933-5.916,1.597-7.563c1.821-1.187,4.108-1.133,5.848-0.076c17.126,10.454,32.437,22.737,47.258,35.569
						c14.854,12.795,28.649,26.653,42.183,40.767c27.072,28.247,51.444,58.972,76.007,89.604
						c24.402,30.793,48.109,62.336,68.226,97.288l7.29,13.342c2.232,4.636,4.6,9.138,6.702,13.892
						c2.028,4.819,4.237,9.468,5.935,14.583c0.876,2.49,1.855,5.061,2.631,7.488l2.181,7.17
						c5.785,19.128,10.532,38.557,14.233,58.188c7.38,39.258,10.661,79.351,9.024,119.47c-1.678,40.076-8.269,80.31-21.806,118.777
						c-13.4,38.386-34.645,74.978-64.241,104.407c-3.671,3.687-7.628,7.097-11.44,10.645c-4.042,3.25-8.079,6.709-12.155,9.753
						c-8.195,5.896-16.205,12.007-24.879,17.336c-17.036,10.979-35.129,20.803-54.246,28.313
						c-19.04,7.642-38.917,13.059-58.288,17.195c-19.385,4.216-38.167,7.554-55.687,12.629c-4.332,1.355-8.649,2.705-12.895,4.197
						l-6.254,2.432l-3.129,1.211c-1.05,0.405-1.422,0.698-2.178,1.023c-5.106,2.698-8.089,6.287-10.302,12.627
						c-2.17,6.248-2.734,14.631-2.539,23.252c0.25,8.716,1.262,17.876,2.548,27.217c2.512,18.755,6.302,38.027,7.537,59.031
						c1.022,20.522,0.073,41.091-3.3,61.482c-6.615,40.737-23.224,80.537-50.926,112.673
						c-27.869,32.266-67.631,54.17-109.816,59.902c-21.048,3.015-42.672,2.419-63.646-2.278
						c-20.93-4.69-41.324-13.584-58.749-27.192l-3.316-2.468l-3.301-3.054c-2.211-2.026-4.389-4.084-6.266-6.47
						c-1.944-2.31-3.957-4.57-5.533-7.148c-1.642-2.524-3.433-4.98-4.696-7.688c-5.7-10.569-8.887-22.009-10.344-33.149
						c-2.875-22.437,0.541-43.611,5.433-63.645c5.079-20.051,12.334-39.028,20.604-57.4c4.161-9.177,8.627-18.181,13.394-27.043
						c2.382-4.434,4.841-8.831,7.402-13.21c2.625-4.434,5.118-8.611,8.389-13.408l0.718,19.263l-25.625-30.972l-6.406-7.744
						c-1.093-1.362-2.077-2.419-3.261-4.033l-3.51-4.805c-5.038-6.311-8.236-13.228-11.934-19.998
						c-2.715-6.978-6.031-13.889-7.803-21.028c-1.001-3.55-2.164-7.087-3.003-10.654l-2.159-10.742
						c-0.814-3.577-1.28-7.17-1.663-10.769l-1.27-10.791c-0.28-7.195-0.887-14.409-0.715-21.594
						c0.353-28.743,5.281-57.397,15.499-84.636c2.749-6.733,5.641-13.457,8.826-20.042l5.357-9.666l2.698-4.822l3.17-4.587
						l6.409-9.136c2.148-3.037,4.858-5.71,7.278-8.572c2.527-2.761,4.913-5.745,7.587-8.293c2.632-2.61,5.375-5.083,8.142-7.515
						c22.317-19.382,47.943-33.298,74.764-43.193c13.439-4.963,27.268-8.887,41.305-11.653c14.061-2.632,28.276-4.346,42.529-4.934
						c28.477-0.83,57.114,2.056,84.194,10.239c6.821,1.812,13.428,4.348,20.024,6.755c6.309,2.419,12.559,4.98,18.796,7.61
						c12.491,5.193,24.902,10.649,37.117,16.75c2.673,1.333,3.758,4.583,2.423,7.256
						C2059.131,1817.915,2056.875,1819.033,2054.661,1818.755z"/>
				</g>
			</g>
			<g style="opacity:0.35;">
				<g>
					<path style="fill:#371A45;" d="M2311.555,1615.4c-0.88,13.92-3.48,27.64-8.12,41.08c-37.24,107.76-167.8,171.48-268.8,171.48
						c-60.76,0-99.84-10.24-129.72-44.36c-5.28-6.04-10.28-12.84-15.08-20.48c-35.12-55.92-17.4-130.2,56.96-165.04
						c6.04-2.84,19.16-4.36,19.16-4.36l-20.72-40.48l-6.92-13.56c0,0,9.84,2.24,23.8,5.24c31.36,6.8,83.44,17.48,90.96,15.32
						c9.88-2.84,22.56-8.72,33.48-19.52c14.28-14.08,25.56-36.56,23.72-71.52l20.081-38.126l-51.289-170.959l-15.313-15.476
						c0,0,47.84,36.56,101.481,92c52.519,54.2,110.6,126.48,134.96,200.24c0,0.12,0.04,0.24,0.12,0.4
						c4.52,13.8,7.88,27.68,9.76,41.52C2311.794,1591.04,2312.315,1603.28,2311.555,1615.4z"/>
				</g>
			</g>
			<g>
				<g>
					<path style="fill:#FFFFFF;" d="M2307.555,1575.4c-0.88,13.92-3.48,27.64-8.12,41.08c-37.24,107.76-167.8,171.48-268.8,171.48
						c-71.56,0-113-14.2-144.8-64.84c-35.12-55.92-17.4-130.2,56.96-165.04c6.04-2.84,19.16-4.36,19.16-4.36l-20.72-40.48
						l-6.92-13.56c0,0,9.84,2.24,23.8,5.24c31.36,6.8,83.44,17.48,90.96,15.32c22.76-6.56,60.48-29.28,57.2-91.04l-7.601-36.76
						l-36.28-175.16l-2.64-12.64c0,0,47.84,36.56,101.481,92C2232.435,1370.16,2313.875,1476.88,2307.555,1575.4z"/>
				</g>
			</g>
			<g style="opacity:0.35;">
				<g>
					<path style="fill:#371A45;" d="M2307.555,1575.4c-0.88,13.92-3.48,27.64-8.12,41.08c-37.24,107.76-167.8,171.48-268.8,171.48
						c-71.56,0-113-14.2-144.8-64.84c-9.08-14.44-14.6-30.12-16.56-46.04c30.24,37.24,69.92,48.28,132.96,48.28
						c101,0,231.559-63.72,268.8-171.48c4.639-13.44,7.24-27.16,8.12-41.08c1.68-26-2.76-52.56-11.52-78.92
						C2293.754,1479.96,2310.555,1528.6,2307.555,1575.4z"/>
				</g>
			</g>
			<g>
				<g>
					<path style="fill:#371A45;" d="M2063.011,1200.386c12.434,5.21,23.652,11.848,34.551,19.023
						c10.95,7.097,21.238,15.024,31.207,23.323c19.792,16.758,38.588,34.727,56.118,53.938
						c17.477,19.258,34.128,39.312,50.029,60.037c15.829,20.776,30.932,42.278,44.163,65.161
						c13.23,22.854,24.805,47.014,33.032,72.786c8.188,25.701,12.955,53.267,11.248,81.257c-0.075,7-1.375,13.94-2.506,20.886
						c-0.792,7.009-3.279,13.694-5.046,20.513c-0.512,1.68-0.903,3.43-1.52,5.049l-1.946,4.807l-3.92,9.602
						c-2.354,6.536-5.973,12.415-9.17,18.516c-13.362,24.08-31.01,45.337-50.994,63.545c-19.967,18.298-42.43,33.438-66.181,45.764
						c-23.746,12.361-48.794,22.061-74.697,28.86c-25.851,6.792-52.822,10.615-79.886,10.452c-13.15-0.01-26.508-0.693-39.992-2.207
						c-13.475-1.563-27.194-4.126-40.718-8.74c-13.5-4.573-26.716-11.401-38.26-20.334c-11.586-8.901-21.39-19.663-29.565-31.025
						c-7.989-11.052-15.248-24.321-19.884-38.037c-4.855-13.779-6.859-28.604-6.387-43.271c0.562-14.644,3.364-29.382,9.218-42.854
						c5.749-13.479,13.651-25.935,23.246-36.76c2.417-2.676,5.054-5.122,7.587-7.678c1.292-1.25,2.537-2.559,3.873-3.75l4.158-3.374
						c2.802-2.202,5.506-4.573,8.411-6.604l8.884-5.823c2.914-2.048,6.052-3.611,9.158-5.247l4.662-2.449l2.333-1.218l1.167-0.61
						l0.583-0.303l0.97-0.427c5.208-2.148,8.636-2.786,12.368-3.613c3.689-0.745,6.95-1.272,10.781-1.755l-12.374,23.171
						l-27.627-54.033l-15.536-30.388l33.337,7.502c18.806,4.233,37.806,8.342,56.695,12.117c9.453,1.907,18.898,3.689,28.251,5.3
						c4.695,0.803,9.302,1.438,13.854,2.043c2.112,0.161,4.494,0.442,6.375,0.522l2.593,0.071l0.323,0.012
						c0.057-0.002-0.111-0.029-0.157-0.037c-0.151-0.022-0.306-0.022-0.46-0.005c-0.28,0.02-0.679,0.178-0.814,0.295
						c7.226-2.466,14.198-6.245,20.106-10.94c6.045-4.583,11.142-10.049,15.623-16.274c4.328-6.326,7.971-13.457,11.298-21.409
						c3.496-7.952,5.768-16.772,9.387-26.294l0.194-0.513c1.1-2.893,4.336-4.346,7.229-3.247c1.533,0.583,2.669,1.785,3.228,3.198
						c1.944,4.971,3.779,10.103,4.527,15.454c0.363,2.666,0.861,5.374,1.086,8.108c0.093,2.739,0.112,5.505,0.083,8.291
						c-0.489,11.113-3.325,22.605-8.914,33.049c-5.375,10.557-13.517,19.846-22.972,27.026
						c-9.529,7.197-20.327,12.104-31.747,15.205c-1.338,0.276-2.955,0.513-4.445,0.654l-2.278,0.161l-1.067,0.032l-0.588-0.037
						l-4.696-0.33c-2.971-0.283-5.413-0.696-8.14-1.045c-5.088-0.757-10.105-1.577-15-2.446c-9.833-1.694-19.52-3.528-29.152-5.466
						c-19.293-3.857-38.353-7.981-57.534-12.297l17.8-22.883l27.627,54.036l10.385,20.31l-22.759,2.864
						c-2.504,0.315-5.553,0.798-8.121,1.328c-2.507,0.486-5.345,1.284-6.03,1.614l-7.281,3.826c-2.546,1.335-5.151,2.59-7.452,4.258
						l-7.148,4.666c-2.326,1.619-4.407,3.511-6.635,5.237l-3.3,2.637c-1.044,0.933-1.985,1.96-2.986,2.932
						c-1.945,1.992-4.03,3.87-5.892,5.923c-7.348,8.323-13.224,17.693-17.528,27.681c-4.399,9.983-6.343,20.825-6.788,31.606
						c-0.343,10.798,1.055,21.763,4.744,32.08c3.632,10.439,8.61,19.875,15.545,29.556c13.413,18.872,30.718,32.637,52.185,39.736
						c91.279,25.588,197.943-3.611,269.62-67.561c17.739-16.167,33.07-34.753,44.495-55.339c2.708-5.215,5.895-10.225,7.817-15.774
						l3.325-8.132l1.676-4.063c0.526-1.357,0.798-2.749,1.212-4.124c1.365-5.547,3.523-10.894,4.087-16.643
						c0.895-5.664,2.042-11.289,2.045-17.107c1.414-23.057-2.507-46.704-9.802-69.58c-7.306-22.917-17.876-45.129-30.227-66.445
						c-24.772-42.712-56.542-81.924-91.537-117.81c-17.382-18.086-34.976-36.018-52.691-53.943
						c-8.861-8.958-17.552-18.132-26.02-27.634c-8.504-9.434-16.877-19.199-24.612-29.666l-0.083-0.112
						c-1.809-2.449-1.291-5.901,1.157-7.71C2059.221,1199.844,2061.282,1199.668,2063.011,1200.386z"/>
				</g>
			</g>
			<g>
				<g>
					<g>
						<path style="fill:#FFFFFF;" d="M1393.223,1337.54c444.68,418.663,1048.004-177.998,665.639-624.936
							C1613.836,273.243,990.775,890.581,1393.223,1337.54z"/>
					</g>
				</g>
				<g>
					<g>
						<path style="fill:#FFFFFF;" d="M1393.223,1337.54c444.68,418.663,1048.004-177.998,665.639-624.936
							C1613.836,273.243,990.775,890.581,1393.223,1337.54z"/>
					</g>
				</g>
				<g style="opacity:0.35;">
					<g>
						<path style="fill:#371A45;" d="M2161.235,1296.64c-2.96,6.12-6.08,12.16-9.361,18.12c-15,27.64-32.88,53.68-53.2,77.68
							c-39,46.16-86.92,84.72-140.56,112.48c-5.56,2.88-11.16,5.68-16.84,8.32l-26.84-52.48c-122.92,21.2-212.04,42.96-274.72,61.44
							c2.08-44.8,1.48-94.2-4.04-146.16l414.24-171.44c0,0,0.2,0.2,0.6,0.6c0.2,0.2,0.44,0.44,0.76,0.76l0.96,0.96
							c0.36,0.4,0.76,0.8,1.24,1.24c2.12,2.16,5.12,5.2,8.92,9.12l-2.64-12.64C2059.754,1204.64,2107.595,1241.2,2161.235,1296.64z"
							/>
					</g>
				</g>
				<g>
					<g>
						<path style="fill:#FFFFFF;" d="M1393.223,1337.54c444.68,418.663,1048.004-177.998,665.639-624.936
							C1613.836,273.243,990.775,890.581,1393.223,1337.54z"/>
					</g>
				</g>
				<g>
					<g>
						<path style="fill:#371A45;" d="M1723.449,1491.047c-120.356,0-236.931-50.002-338.047-145.2l-0.657-0.674
							c-95.969-106.584-141.326-230.271-131.162-357.688c9.067-113.679,61.775-221.855,148.416-304.604
							c86.465-82.581,196.35-129.556,309.407-132.273c127.373-3.091,250.4,50.149,355.469,153.879l0.654,0.703
							c91.313,106.733,133.647,229.382,122.427,354.687c-10.037,112.063-62.446,218.481-147.576,299.656
							c-84.929,80.981-193.105,127.605-304.597,131.277C1733.005,1490.966,1728.215,1491.047,1723.449,1491.047z M1401.384,1329.56
							c222.395,209.097,474.238,157.454,625.254,13.462c147.544-140.686,217.881-395.493,23.87-622.637
							c-221.37-218.249-483.137-163.906-632.751-21.006C1266.657,843.689,1197.131,1102.387,1401.384,1329.56z"/>
					</g>
				</g>
				<g style="opacity:0.35;">
					<g>
						<path style="fill:#371A45;" d="M1393.218,1337.525c377.785,368.298,948.67-47.832,742.078-510.93
							c15.62,164.629-36.606,186.337-96.29,289.507c-178.349,333.539-630.395,255.109-770.91-46.415
							C1278.994,1171.91,1324.167,1265.701,1393.218,1337.525z"/>
					</g>
				</g>
				<g>
					<g>
						<path style="fill:#293856;" d="M1723.44,1495.639c-121.541,0-239.202-50.432-341.184-146.448l-0.923-0.945
							c-96.836-107.544-142.593-232.419-132.329-361.125c9.158-114.807,62.366-224.036,149.822-307.561
							c87.295-83.374,198.267-130.801,312.471-133.545c128.799-2.986,252.83,50.576,358.806,155.203l0.918,0.986
							c92.136,107.695,134.846,231.519,123.511,358.081c-10.134,113.176-63.044,220.63-148.979,302.571
							c-85.75,81.763-194.995,128.835-307.617,132.544C1733.1,1495.561,1728.259,1495.639,1723.44,1495.639z M1404.673,1326.345
							c220.166,206.868,469.385,155.82,618.796,13.352c146.001-139.214,215.613-391.335,23.674-616.179
							c-219.148-215.906-478.184-162.2-626.216-20.818C1271.421,845.493,1202.646,1101.489,1404.673,1326.345z"/>
					</g>
				</g>
				<g>
					<g>
						<path style="fill:#371A45;" d="M1723.44,1495.639c-121.541,0-239.202-50.432-341.184-146.448l-0.923-0.945
							c-96.836-107.544-142.593-232.419-132.329-361.125c9.158-114.807,62.366-224.036,149.822-307.561
							c87.295-83.374,198.267-130.801,312.471-133.545c128.799-2.986,252.83,50.576,358.806,155.203l0.918,0.986
							c92.136,107.695,134.846,231.519,123.511,358.081c-10.134,113.176-63.044,220.63-148.979,302.571
							c-85.75,81.763-194.995,128.835-307.617,132.544C1733.1,1495.561,1728.259,1495.639,1723.44,1495.639z M1404.673,1326.345
							c220.166,206.868,469.385,155.82,618.796,13.352c146.001-139.214,215.613-391.335,23.674-616.179
							c-219.148-215.906-478.184-162.2-626.216-20.818C1271.421,845.493,1202.646,1101.489,1404.673,1326.345z"/>
					</g>
				</g>
				<g>
					<g>
						<path style="fill:#371A46;" d="M1484.438,1410.793c510.47,164.19,774.33-447.775,363.837-675.617
							C1372.981,507.909,1031.957,1106.156,1484.438,1410.793z"/>
					</g>
				</g>
				<g style="opacity:0.35;">
					<g>
						<path style="fill:#111A28;" d="M1942.782,804.976c135.991,268.77-115.519,643.601-528.344,510.818
							c-36.566-24.619-67.919-51.162-94.468-79.026c34.329,62.786,88.074,122.593,164.468,174.026
							C1949.095,1560.247,2209.392,1066.624,1942.782,804.976z"/>
					</g>
				</g>
				<g>
					<g>
						<path style="fill:#371A45;" d="M1696.467,1487.617c-4.265,0-8.523-0.073-12.791-0.22
							c-106.399-3.66-209.878-52.41-299.253-140.977l-0.066-0.068c-146.819-147.72-191.501-432.441-24.009-620.845l1.538-1.46
							c96.492-77.109,227.107-110.317,358.342-91.128c130.784,19.131,245.823,87.859,315.615,188.557
							c65.068,99.233,88.167,209.365,66.975,318.755c-19.207,99.155-73.584,189.553-153.11,254.546
							C1876.125,1454.909,1786.655,1487.617,1696.467,1487.617z M1402.06,1328.701c196.494,194.695,409.297,146.855,531.829,46.716
							c140.837-115.093,213.965-337.524,81.228-539.966c-65.681-94.761-174.548-159.663-298.506-177.795
							c-124.019-18.142-247.268,12.932-338.286,85.259C1221.001,920.805,1263.467,1189.228,1402.06,1328.701z"/>
					</g>
				</g>
				<g>
					<g>
						<path style="fill:#371A45;" d="M1651.316,1454.37c-55.293,0-112.986-9.436-171.777-28.345l-2.156-0.693l-1.88-1.267
							c-109.517-73.73-181.494-169.929-208.157-278.196c-23.892-97.021-9.78-198.162,39.736-284.788
							c48.396-84.665,125.857-146.875,218.115-175.166c102.5-31.433,216.604-19.39,329.98,34.827l0.864,0.444
							c96.667,53.655,163.44,131.68,193.096,225.637c26.855,85.083,21.326,178.821-15.566,263.95
							c-39.937,92.151-112.415,165.537-204.082,206.638C1774.58,1442.033,1714.519,1454.37,1651.316,1454.37z M1491.496,1396.252
							c259.121,82.341,444.15-40.005,512.712-198.203c62.212-143.547,35.808-337.886-163.274-448.65
							c-235.103-112.183-423.55-16.807-506.072,127.561C1250.071,1025.3,1265.781,1243.149,1491.496,1396.252z"/>
					</g>
				</g>
				<g>
					<g>
						<path style="fill:#FFFFFF;" d="M2247.687,998.441c18.497,214.559-194.984,251.155-233.29,48.101
							C1986.756,822.377,2214.953,783.231,2247.687,998.441z"/>
					</g>
				</g>
				<g style="opacity:0.35;">
					<g>
						<path style="fill:#371A45;" d="M2150.237,1180.195c-63.911,11.44-127.949-54.737-137.287-144.41
							c61.177,81.844,121.532-91.274,118.092-135.989C2302.72,902.46,2268.076,1161.7,2150.237,1180.195z"/>
					</g>
				</g>
				<g>
					<g>
						<path style="fill:#371A45;" d="M2135.224,1196.704c-56.289,0-117.053-43.843-136.55-147.195l-0.156-1.008
							c-15.276-123.889,44.932-198.101,112.3-207.375c60.881-8.379,134.678,36.511,152.688,154.91l0.122,1.033
							c10.715,124.297-51.45,190.098-113.745,198.638C2145.053,1196.367,2140.154,1196.704,2135.224,1196.704z M2030.215,1044.079
							c17.405,91.365,70.403,126.074,115.322,119.922c47.695-6.538,94.973-60.535,86.255-163.667
							c-14.871-96.582-70.803-133.821-116.611-127.507C2063.43,879.951,2017.688,941.054,2030.215,1044.079z"/>
					</g>
				</g>
				<g>
					<g>
						<path style="fill:#FFFFFF;" d="M2258.566,1008.074c14.805,173.888-144.66,204.007-175.669,39.778
							C2059.394,864.266,2232.732,831.727,2258.566,1008.074z"/>
					</g>
				</g>
				<g>
					<g>
						<path style="fill:#371A45;" d="M2174.956,1172.097c-43.831,0-91.714-36.187-107.781-121.277l-0.149-0.938
							c-13.337-104.197,33.872-166.152,87.402-173.499c47.708-6.58,105.579,31.15,119.968,129.37l0.112,0.962
							c8.818,103.584-39.873,157.964-88.848,164.656C2182.134,1171.853,2178.557,1172.097,2174.956,1172.097z M2098.708,1045.346
							c13.567,71.094,51.235,98.596,82.622,94.319c35.483-4.849,67.896-50.962,61.335-129.753
							c-11.328-76.313-51.409-106.279-83.887-101.826C2120.932,913.281,2088.196,962.089,2098.708,1045.346z"/>
					</g>
				</g>
				<g style="opacity:0.7;">
					<g>
						<path style="fill:#FFFFFF;" d="M1952.554,965.765c-3.775,90.583-106.795,87.889-116.731,9.035
							C1828.909,874.642,1950.38,875.855,1952.554,965.765z"/>
					</g>
				</g>
				<g style="opacity:0.7;">
					<g>
						<path style="fill:#FFFFFF;" d="M1932.702,1111.301c-3.445,34.559-48.522,34.251-48.259-3.645
							C1887.887,1073.099,1932.964,1073.407,1932.702,1111.301z"/>
					</g>
				</g>
				<g style="opacity:0.7;">
					<g>
						<path style="fill:#FFFFFF;" d="M1348.314,1150.65c-137.631-317.904,195.637-445.494,317.181-400.714
							C1448.824,819.25,1384.696,979.324,1348.314,1150.65z"/>
					</g>
				</g>
				<g style="opacity:0.35;">
					<g>
						<path style="fill:#371A45;" d="M2083.767,1087.897c-8.827-22.908-11.403-48.318-8.586-72.819
							c57.661,105.962,159.369,28.027,165.867-59.729C2307.291,1116.733,2156.172,1236.792,2083.767,1087.897z"/>
					</g>
				</g>
				<g>
					<g>
						<path style="fill:#371A45;" d="M1990.163,923.178c-2.119,0-4.082-0.252-5.85-0.64c-21.653-4.751-30.498-34.133-32.695-43.025
							c-2.117-8.579,3.12-17.251,11.699-19.37c8.56-2.124,17.227,3.106,19.36,11.665l0,0c1.692,6.721,5.161,14.526,7.869,18.132
							c0.688-0.654,1.563-1.582,2.605-2.888c5.515-6.907,15.586-8.027,22.488-2.512c6.904,5.515,8.027,15.583,2.512,22.488
							C2008.003,919.729,1998.015,923.178,1990.163,923.178z"/>
					</g>
				</g>
			</g>
			<g style="opacity:0.35;">
				<g>
					<path style="fill:#371A45;" d="M1625.714,1889.04L1511.235,1848l-46.32-68.56l-28.4-42l-73-107.92
						c-0.56-5.72-1.04-11.6-1.36-17.72c0,0,66.32,14.84,109,77.84c19.84,29.32,23.56,62.12,15.16,78.92
						c31.92,36.36,53.898,84.477,138.359,118.52L1625.714,1889.04z"/>
				</g>
			</g>
			<g>
				<g>
					<path style="fill:#FFFFFF;" d="M1329.415,1571.781c0,0,66.328,14.855,109.003,77.87c27.745,40.969,23.963,88.866-0.334,90.115
						S1336.537,1706.228,1329.415,1571.781z"/>
				</g>
			</g>
			<g style="opacity:0.35;">
				<g>
					<path style="fill:#371A45;" d="M1438.075,1739.76c-23.16,1.2-94.64-30.44-107.28-150.28c25.08,72.36,75.92,93.16,94.8,92.2
						c10.12-0.52,16.72-9.16,18.88-22.08C1465.435,1698,1460.435,1738.6,1438.075,1739.76z"/>
				</g>
			</g>
			<g>
				<g>
					<path style="fill:#371A45;" d="M1436.653,1755.803c-37.197,0-115.872-44.58-123.215-183.174l-1.118-21.072l20.591,4.612
						c2.961,0.662,73.049,17.017,118.755,84.509c21.575,31.858,28.262,70.93,16.265,95.017
						c-6.028,12.104-16.606,19.414-29.023,20.049C1438.174,1755.783,1437.419,1755.803,1436.653,1755.803z M1347.568,1595.105
						c13.733,105.791,75.859,128.696,89.175,128.696c0.183,0,0.354-0.005,0.518-0.01c0.759-0.039,1.594-1.499,2.026-2.363
						c4.856-9.751,3.728-36.453-14.119-62.805C1401.24,1623.286,1368.764,1604.37,1347.568,1595.105z"/>
				</g>
			</g>
			<g>
				<g>
					<path style="fill:#371A45;" d="M2262.004,1693.723c-1.741,0-3.508-0.381-5.181-1.182c-5.977-2.866-8.499-10.034-5.632-16.008
						c25.579-53.342-10.93-97.576-34.971-119.197c-46.089-41.453-107.83-57.561-130.193-43.765
						c-5.647,3.479-13.035,1.729-16.516-3.909c-3.479-5.64-1.731-13.035,3.909-16.516c38.066-23.494,112.871,4.993,158.85,46.345
						c49.399,44.426,64.182,98.159,40.562,147.417C2270.769,1691.213,2266.474,1693.723,2262.004,1693.723z"/>
				</g>
			</g>
			<g>
				<g>
					<path style="fill:#371A45;" d="M1979.778,2059.704c-0.652,0-1.311-0.054-1.975-0.161c-6.538-1.084-10.962-7.266-9.878-13.804
						c19.106-115.366-34.741-167.837-68.54-188.848c-46.692-29.028-109.126-31.372-145.222-5.469
						c-5.376,3.867-12.881,2.637-16.746-2.749c-3.865-5.381-2.634-12.881,2.751-16.743c44.243-31.758,116.531-29.839,171.887,4.58
						c66.174,41.133,95.168,118.823,79.546,213.154C1990.63,2055.539,1985.542,2059.704,1979.778,2059.704z"/>
				</g>
			</g>
			<g>
				<g>
					<path style="fill:#371A45;" d="M1750.764,2104.885c3.998,2.441,8.877,5.583,13.431,8.25c4.631,2.764,9.333,5.413,14.094,7.903
						c9.553,4.902,19.298,9.363,29.542,12.402c10.237,3.184,20.873,4.358,31.764,4.165l8.247-0.459l8.205-1.526
						c1.383-0.269,2.814-0.449,4.189-0.796l4.06-1.292l8.38-2.534l0.227-0.071c0.908-0.273,1.867,0.239,2.142,1.147
						c0.211,0.696-0.046,1.426-0.584,1.851c-2.36,1.851-4.759,3.74-7.247,5.559l-3.754,2.759c-1.313,0.806-2.709,1.46-4.077,2.2
						c-2.75,1.45-5.553,2.896-8.418,4.248l-9.008,3.01c-12.216,3.347-25.435,4.656-38.204,2.988
						c-12.77-1.541-25.333-4.9-36.876-10.254c-2.891-1.316-5.777-2.676-8.505-4.285c-2.786-1.516-5.526-3.115-8.135-4.919
						c-5.399-3.54-10.14-7.168-15.185-12.202c-4.693-4.683-4.702-12.28-0.02-16.975c3.997-4.006,10.12-4.597,14.746-1.772
						L1750.764,2104.885z"/>
				</g>
			</g>
			<g>
				<g>
					<path style="fill:#371A45;" d="M1496.388,2059.221c-0.007-0.171,0.459,0.437,0.727,0.732l1.071,1.194
						c0.652,0.84,1.567,1.65,2.327,2.505c1.644,1.658,3.32,3.35,5.194,4.895c3.587,3.225,7.697,5.996,11.87,8.733
						c8.525,5.239,18.184,9.431,28.579,12.339c10.349,3.186,21.496,4.458,32.833,5.698l17.292,0.823
						c5.807-0.11,11.69-0.105,17.684,0.039l0.125,0.002c0.957,0.024,1.714,0.818,1.691,1.775c-0.018,0.728-0.481,1.338-1.121,1.58
						c-5.609,2.114-11.329,4.092-17.125,5.952c-5.851,1.577-11.83,2.815-17.855,4.109c-12.153,1.655-24.713,2.893-37.478,1.294
						c-12.686-1.357-25.779-4.453-37.645-11.067c-5.878-3.352-11.619-7.146-16.564-12.061c-2.59-2.292-4.832-5.034-7.04-7.803
						c-1.068-1.453-2.108-2.849-3.075-4.473c-0.499-0.808-0.95-1.528-1.42-2.449c-0.491-0.962-0.841-1.582-1.524-3.059
						c-2.971-5.925-0.577-13.135,5.348-16.106C1486.206,2050.903,1493.417,2053.296,1496.388,2059.221z"/>
				</g>
			</g>
		</g>
		<g>
			<g>
				<g>
					<g>
						<path style="fill:#F9195A;" d="M2454.944,1064.541c-3.359,0-6.682-1.301-9.182-3.804c-4.172-4.17-5.005-10.628-2.031-15.723
							l31.638-54.192c6.848-11.729,5.403-26.309-3.599-36.279c-31.868-35.305-49.624-80.93-49.993-128.469
							c-0.823-105.869,84.573-193.657,190.364-195.696c1.279-0.024,2.551-0.037,3.826-0.037c52.454,0,101.606,20.591,138.406,57.979
							c36.792,37.378,56.597,86.872,55.764,139.36c-1.667,105.342-88.787,191.05-194.189,191.05c-0.005,0-1.675-0.007-1.675-0.007
							c-16.482-0.139-32.869-2.366-48.704-6.614c-2.458-0.662-5.002-0.996-7.559-0.996c-5.269,0-10.483,1.421-15.081,4.104
							l-81.445,47.551C2459.443,1063.96,2457.185,1064.541,2454.944,1064.541z"/>
					</g>
				</g>
				<g>
					<g>
						<g>
							<path style="fill:#371A45;" d="M2615.967,643.322c101.057,0,182.798,82.727,181.191,184.153
								c-1.56,98.491-82.886,178.276-181.213,178.276c-0.518,0-1.04-0.002-1.56-0.007c-15.71-0.134-30.938-2.278-45.452-6.172
								c-3.594-0.964-7.266-1.438-10.923-1.438c-7.532,0-15.007,2.009-21.626,5.874l-81.445,47.551l31.638-54.192
								c9.624-16.482,7.617-37.354-5.171-51.521c-28.691-31.785-46.292-73.765-46.65-119.873
								c-0.767-98.723,78.926-180.715,177.634-182.617C2613.586,643.335,2614.775,643.322,2615.967,643.322 M2615.967,617.363
								c-1.357,0-2.712,0.012-4.077,0.039c-112.864,2.175-203.97,95.83-203.093,208.774c0.396,50.72,19.338,99.397,53.34,137.065
								c5.195,5.757,6.008,14.209,2.024,21.035l-31.641,54.194c-5.947,10.188-4.277,23.103,4.063,31.445
								c5.002,5,11.648,7.603,18.367,7.603c4.485,0,9.001-1.16,13.079-3.54l81.445-47.551c2.615-1.528,5.566-2.334,8.538-2.334
								c1.421,0,2.832,0.186,4.192,0.552c16.899,4.534,34.38,6.907,51.96,7.058l1.782,0.007
								c112.456,0,205.391-91.436,207.17-203.826c0.886-55.994-20.242-108.794-59.492-148.672
								C2724.363,639.328,2671.926,617.363,2615.967,617.363L2615.967,617.363z"/>
						</g>
					</g>
				</g>
			</g>
			<g style="opacity:0.5;">
				<g>
					<g>
						<path style="fill:#FFFFFF;" d="M2602.876,657.628c102.701-1.979,186.393,81.497,184.767,184.118
							c-0.518,32.731-9.889,63.368-25.721,89.725c21.566-29.274,34.621-65.164,35.236-103.997
							c1.626-102.622-82.066-186.097-184.767-184.118c-64.393,1.241-120.672,36.575-151.823,88.391
							C2492.942,687.815,2544.586,658.75,2602.876,657.628z"/>
					</g>
				</g>
			</g>
			<g style="opacity:0.3;">
				<g>
					<path style="fill:#102770;" d="M2642.93,967.687c-15.71-0.135-30.94-2.279-45.452-6.174c-1.536-0.413-3.845-0.699-6.679-0.886
						c-26.998-1.785-51.139-16.29-67.603-37.761c-4.056-5.289-8.678-10.018-13.245-15.078
						c-28.692-31.783-46.291-73.763-46.65-119.872c-0.253-32.559,8.288-63.268,23.333-89.915
						c-32.376,33.109-52.263,78.43-51.878,127.975c0.357,45.86,17.768,87.636,46.186,119.357
						c12.851,14.345,15.527,35.095,5.816,51.728l-31.821,54.502l81.446-47.551c9.901-5.781,21.688-7.338,32.765-4.379
						c14.448,3.859,29.604,5.983,45.236,6.117c68.159,0.585,128.336-37.191,159.74-93.084
						C2740.749,946.905,2694.106,968.126,2642.93,967.687z"/>
				</g>
			</g>
			<g>
				<g>
					<path style="fill:#FFFFFF;" d="M2549.886,763.972L2549.886,763.972c18.514-18.514,48.531-15.197,67.045,3.317l2.881,2.881
						l2.881-2.881c18.514-18.514,48.531-21.831,67.045-3.317l0,0c18.514,18.514,18.514,48.531,0,67.045l-2.882,2.882l-58.207,58.207
						c-4.881,4.881-12.794,4.881-17.675,0l-58.207-58.207l-2.882-2.881C2531.372,812.503,2531.372,782.486,2549.886,763.972z"/>
				</g>
			</g>
			<g style="opacity:0.5;">
				<g>
					<path style="fill:#FCE5E5;" d="M2555.946,789.476c5.698-7.846,16.757-8.216,20.098-5.79c3.341,2.426-2.3,6.731-7.999,14.577
						c-5.698,7.846-9.295,16.263-12.636,13.837C2552.067,809.673,2550.247,797.322,2555.946,789.476z"/>
				</g>
			</g>
			<g style="opacity:0.5;">
				<g>
					<g>
						<path style="fill:#FCE5E5;" d="M2591.333,773.303c0.304,2.323-1.293,4.461-3.397,5.299c-2.117,0.803-4.739,0.306-6.084-1.612
							c-1.344-1.899-0.146-5.038,3.019-6.27C2588.037,769.49,2591.042,770.994,2591.333,773.303z"/>
					</g>
				</g>
			</g>
		</g>
	</g>
</g>
</svg>
